<svg width="32" height="32" viewBox="0 0 32 32" fill="none" xmlns="http://www.w3.org/2000/svg">
<path fill-rule="evenodd" clip-rule="evenodd" d="M1 8C1 7.44772 1.44772 7 2 7H30C30.5523 7 31 7.44772 31 8C31 8.55228 30.5523 9 30 9H2C1.44772 9 1 8.55228 1 8Z" fill="white"/>
<path fill-rule="evenodd" clip-rule="evenodd" d="M1 16C1 15.4477 1.44772 15 2 15H30C30.5523 15 31 15.4477 31 16C31 16.5523 30.5523 17 30 17H2C1.44772 17 1 16.5523 1 16Z" fill="white"/>
<path fill-rule="evenodd" clip-rule="evenodd" d="M1 24C1 23.4477 1.44772 23 2 23H30C30.5523 23 31 23.4477 31 24C31 24.5523 30.5523 25 30 25H2C1.44772 25 1 24.5523 1 24Z" fill="white"/>
</svg>
